<svg width="3138" height="809" viewBox="0 0 3138 809" fill="none" xmlns="http://www.w3.org/2000/svg">
<path fill-rule="evenodd" clip-rule="evenodd" d="M350.061 798.344H665.98V798.344C666.678 801.55 664.492 804.615 661.221 804.867C646.933 805.971 604.804 808.367 508.212 808.391C411.581 808.415 370.002 805.991 355.981 804.873C352.576 804.602 350.061 801.76 350.061 798.344V798.344Z" fill="#EDECE7"/>
<path fill-rule="evenodd" clip-rule="evenodd" d="M350.061 798.344H665.98V798.344C666.678 801.55 664.492 804.615 661.221 804.867C646.933 805.971 604.804 808.367 508.212 808.391C411.581 808.415 370.002 805.991 355.981 804.873C352.576 804.602 350.061 801.76 350.061 798.344V798.344Z" fill="url(#paint0_linear_1_71)"/>
<path fill-rule="evenodd" clip-rule="evenodd" d="M400.682 687.208H617.227C617.227 687.208 623.827 754.808 628.509 759.906C631.363 765.921 658.458 789.652 665.313 796.978C667.706 800.366 672.2 804.128 508.954 804.128C345.709 804.128 347.93 800.784 350.778 796.978C361.507 783.912 369.6 780.719 387.326 759.906C396.494 746.577 400.682 687.208 400.682 687.208Z" fill="#8C8F8C"/>
<path fill-rule="evenodd" clip-rule="evenodd" d="M400.682 687.208H617.227C617.227 687.208 623.827 754.808 628.509 759.906C631.363 765.921 658.458 789.652 665.313 796.978C667.706 800.366 672.2 804.128 508.954 804.128C345.709 804.128 347.93 800.784 350.778 796.978C361.507 783.912 369.6 780.719 387.326 759.906C396.494 746.577 400.682 687.208 400.682 687.208Z" fill="url(#paint1_linear_1_71)"/>
<path fill-rule="evenodd" clip-rule="evenodd" d="M400.682 687.208H617.227C617.227 687.208 623.827 754.808 628.509 759.906C631.363 765.921 658.458 789.652 665.313 796.978C667.706 800.366 672.2 804.128 508.954 804.128C345.709 804.128 347.93 800.784 350.778 796.978C361.507 783.912 369.6 780.719 387.326 759.906C396.494 746.577 400.682 687.208 400.682 687.208Z" fill="url(#paint2_linear_1_71)"/>
<path fill-rule="evenodd" clip-rule="evenodd" d="M400.682 687.208H617.227C617.227 687.208 623.827 754.808 628.509 759.906C631.363 765.921 658.458 789.652 665.313 796.978C667.706 800.366 672.2 804.128 508.954 804.128C345.709 804.128 347.93 800.784 350.778 796.978C361.507 783.912 369.6 780.719 387.326 759.906C396.494 746.577 400.682 687.208 400.682 687.208Z" fill="url(#paint3_radial_1_71)"/>
<path fill-rule="evenodd" clip-rule="evenodd" d="M400.682 687.208H617.227C617.227 687.208 623.827 754.808 628.509 759.906C631.363 765.921 658.458 789.652 665.313 796.978C667.706 800.366 672.2 804.128 508.954 804.128C345.709 804.128 347.93 800.784 350.778 796.978C361.507 783.912 369.6 780.719 387.326 759.906C396.494 746.577 400.682 687.208 400.682 687.208Z" fill="url(#paint4_radial_1_71)"/>
<path fill-rule="evenodd" clip-rule="evenodd" d="M400.682 687.208H617.227C617.227 687.208 623.827 754.808 628.509 759.906C631.363 765.921 658.458 789.652 665.313 796.978C667.706 800.366 672.2 804.128 508.954 804.128C345.709 804.128 347.93 800.784 350.778 796.978C361.507 783.912 369.6 780.719 387.326 759.906C396.494 746.577 400.682 687.208 400.682 687.208Z" fill="url(#paint5_radial_1_71)"/>
<path fill-rule="evenodd" clip-rule="evenodd" d="M400.682 687.208H617.227C617.227 687.208 623.827 754.808 628.509 759.906C631.363 765.921 658.458 789.652 665.313 796.978C667.706 800.366 672.2 804.128 508.954 804.128C345.709 804.128 347.93 800.784 350.778 796.978C361.507 783.912 369.6 780.719 387.326 759.906C396.494 746.577 400.682 687.208 400.682 687.208Z" fill="url(#paint6_radial_1_71)"/>
<path fill-rule="evenodd" clip-rule="evenodd" d="M400.682 687.208H617.227C617.227 687.208 623.827 754.808 628.509 759.906C631.363 765.921 658.458 789.652 665.313 796.978C667.706 800.366 672.2 804.128 508.954 804.128C345.709 804.128 347.93 800.784 350.778 796.978C361.507 783.912 369.6 780.719 387.326 759.906C396.494 746.577 400.682 687.208 400.682 687.208Z" fill="url(#paint7_radial_1_71)"/>
<rect x="45.0122" y="40.4957" width="911.8" height="516.091" fill="black" fill-opacity="0.01"/>
<path d="M0 595.56H1000V661.677C1000 675.946 988.433 687.513 974.164 687.513H25.8359C11.5671 687.513 0 675.946 0 661.677V595.56Z" fill="#7D7D7D"/>
<path d="M0 595.56H1000V661.677C1000 675.946 988.433 687.513 974.164 687.513H25.8359C11.5671 687.513 0 675.946 0 661.677V595.56Z" fill="url(#paint8_linear_1_71)"/>
<path fill-rule="evenodd" clip-rule="evenodd" d="M30.3951 0C13.6084 0 0 13.6084 0 30.3951V40.4957V556.587V595.56H1000V556.587V40.4957V30.3951C1000 13.6084 986.392 0 969.605 0H30.3951ZM956.813 556.587V40.4957H45.6204V556.587H956.813Z" fill="#0B0B0B"/>
<ellipse cx="503.118" cy="618.674" rx="2.89058" ry="7.15206" transform="rotate(39 503.118 618.674)" fill="black"/>
<ellipse cx="498.552" cy="641.986" rx="18.3205" ry="17.6784" fill="black"/>
<path d="M1346.87 472.59C1346.87 480.911 1345.78 488.423 1343.62 495.123C1341.57 501.715 1338.81 507.551 1335.36 512.631C1331.9 517.71 1327.84 522.033 1323.2 525.6C1318.55 529.166 1313.74 532.084 1308.77 534.354C1303.8 536.623 1298.72 538.298 1293.53 539.379C1288.45 540.46 1283.64 541 1279.1 541H1116.51V498.852H1279.1C1287.21 498.852 1293.48 496.474 1297.91 491.719C1302.45 486.964 1304.72 480.587 1304.72 472.59C1304.72 468.699 1304.12 465.133 1302.93 461.891C1301.74 458.648 1300.02 455.839 1297.75 453.461C1295.58 451.083 1292.88 449.246 1289.64 447.949C1286.51 446.652 1282.99 446.004 1279.1 446.004H1182.16C1175.35 446.004 1168 444.815 1160.12 442.438C1152.23 439.952 1144.88 436.007 1138.07 430.604C1131.37 425.2 1125.75 418.121 1121.21 409.367C1116.78 400.613 1114.56 389.914 1114.56 377.27C1114.56 364.625 1116.78 353.98 1121.21 345.334C1125.75 336.58 1131.37 329.501 1138.07 324.098C1144.88 318.586 1152.23 314.641 1160.12 312.264C1168 309.778 1175.35 308.535 1182.16 308.535H1325.63V350.684H1182.16C1174.16 350.684 1167.9 353.115 1163.36 357.979C1158.93 362.842 1156.71 369.272 1156.71 377.27C1156.71 385.375 1158.93 391.805 1163.36 396.561C1167.9 401.208 1174.16 403.531 1182.16 403.531H1279.1H1279.43C1283.97 403.639 1288.78 404.288 1293.86 405.477C1298.93 406.557 1303.96 408.286 1308.93 410.664C1314.01 413.042 1318.82 416.068 1323.36 419.742C1327.9 423.309 1331.9 427.632 1335.36 432.711C1338.92 437.79 1341.73 443.626 1343.79 450.219C1345.84 456.811 1346.87 464.268 1346.87 472.59ZM1529.08 407.908H1455.48V541H1412.84V407.908H1358.05V365.76H1412.84V308.535H1455.48V365.76H1529.08V407.908ZM1746.79 481.83C1746.79 489.071 1745.87 495.609 1744.03 501.445C1742.2 507.173 1739.76 512.253 1736.74 516.684C1733.71 521.007 1730.2 524.735 1726.2 527.869C1722.2 530.895 1717.99 533.381 1713.56 535.326C1709.23 537.271 1704.8 538.73 1700.26 539.703C1695.83 540.568 1691.62 541 1687.62 541H1611.59C1605.75 541 1599.38 539.973 1592.46 537.92C1585.54 535.867 1579.11 532.516 1573.17 527.869C1567.33 523.114 1562.42 517.008 1558.42 509.551C1554.53 501.986 1552.58 492.745 1552.58 481.83V424.768C1552.58 413.96 1554.53 404.828 1558.42 397.371C1562.42 389.806 1567.33 383.7 1573.17 379.053C1579.11 374.298 1585.54 370.893 1592.46 368.84C1599.38 366.786 1605.75 365.76 1611.59 365.76H1687.62C1698.43 365.76 1707.61 367.705 1715.18 371.596C1722.74 375.486 1728.85 380.404 1733.5 386.348C1738.14 392.184 1741.49 398.56 1743.55 405.477C1745.71 412.393 1746.79 418.824 1746.79 424.768V481.83ZM1704.64 425.092C1704.64 419.256 1703.18 414.933 1700.26 412.123C1697.35 409.313 1693.13 407.908 1687.62 407.908H1611.91C1606.29 407.908 1602.03 409.367 1599.11 412.285C1596.19 415.095 1594.73 419.256 1594.73 424.768V481.83C1594.73 487.342 1596.19 491.557 1599.11 494.475C1602.03 497.393 1606.29 498.852 1611.91 498.852H1687.62C1693.35 498.852 1697.62 497.393 1700.43 494.475C1703.24 491.557 1704.64 487.342 1704.64 481.83V425.092ZM1936.13 407.908H1841.3C1835.57 407.908 1831.25 409.367 1828.33 412.285C1825.41 415.095 1823.95 419.256 1823.95 424.768V541H1781.8V424.768C1781.8 417.527 1782.72 411.042 1784.56 405.314C1786.4 399.587 1788.83 394.561 1791.86 390.238C1794.99 385.807 1798.56 382.079 1802.55 379.053C1806.55 375.919 1810.71 373.379 1815.04 371.434C1819.47 369.488 1823.9 368.083 1828.33 367.219C1832.87 366.246 1837.08 365.76 1840.97 365.76H1936.13V407.908ZM2157.25 557.859C2157.25 565.1 2156.33 571.585 2154.49 577.312C2152.66 583.148 2150.23 588.228 2147.2 592.551C2144.17 596.982 2140.66 600.71 2136.66 603.736C2132.66 606.87 2128.45 609.41 2124.02 611.355C2119.69 613.301 2115.32 614.706 2110.89 615.57C2106.46 616.543 2102.24 617.029 2098.24 617.029H2022.21V574.881H2098.24C2103.86 574.881 2108.08 573.422 2110.89 570.504C2113.7 567.586 2115.1 563.371 2115.1 557.859V365.76H2157.25V557.859ZM2098.24 541H2022.21C2016.16 541 2009.68 539.973 2002.76 537.92C1995.95 535.867 1989.57 532.516 1983.63 527.869C1977.69 523.114 1972.77 517.008 1968.88 509.551C1964.99 501.986 1963.04 492.745 1963.04 481.83V365.76H2005.19V481.83C2005.19 487.342 2006.65 491.557 2009.57 494.475C2012.49 497.393 2016.81 498.852 2022.54 498.852H2098.24V541ZM2390.69 481.83C2390.69 485.829 2390.2 490.044 2389.23 494.475C2388.36 498.906 2386.96 503.337 2385.01 507.768C2383.07 512.09 2380.53 516.251 2377.39 520.25C2374.37 524.249 2370.64 527.815 2366.21 530.949C2361.89 533.975 2356.86 536.407 2351.13 538.244C2345.4 540.081 2338.92 541 2331.68 541H2255.65C2251.65 541 2247.44 540.568 2243.01 539.703C2238.57 538.73 2234.14 537.271 2229.71 535.326C2225.39 533.381 2221.23 530.895 2217.23 527.869C2213.23 524.735 2209.67 521.007 2206.53 516.684C2203.51 512.253 2201.07 507.173 2199.24 501.445C2197.4 495.609 2196.48 489.071 2196.48 481.83V291.676H2238.63V481.83C2238.63 487.018 2240.25 491.178 2243.49 494.312C2246.73 497.339 2250.79 498.852 2255.65 498.852H2331.68C2336.98 498.852 2341.08 497.285 2344 494.15C2347.03 491.016 2348.54 486.91 2348.54 481.83V424.768C2348.54 419.472 2346.97 415.365 2343.84 412.447C2340.7 409.421 2336.65 407.908 2331.68 407.908H2255.65V365.76H2331.68C2335.68 365.76 2339.89 366.246 2344.32 367.219C2348.76 368.083 2353.13 369.488 2357.46 371.434C2361.89 373.379 2366.1 375.919 2370.1 379.053C2374.1 382.079 2377.61 385.807 2380.64 390.238C2383.66 394.561 2386.09 399.587 2387.93 405.314C2389.77 411.042 2390.69 417.527 2390.69 424.768V481.83ZM2617.32 481.83C2617.32 489.071 2616.4 495.609 2614.56 501.445C2612.72 507.173 2610.29 512.253 2607.27 516.684C2604.24 521.007 2600.73 524.735 2596.73 527.869C2592.73 530.895 2588.51 533.381 2584.08 535.326C2579.76 537.271 2575.33 538.73 2570.79 539.703C2566.36 540.568 2562.15 541 2558.15 541H2482.12C2476.28 541 2469.9 539.973 2462.99 537.92C2456.07 535.867 2449.64 532.516 2443.7 527.869C2437.86 523.114 2432.94 517.008 2428.95 509.551C2425.05 501.986 2423.11 492.745 2423.11 481.83V424.768C2423.11 413.96 2425.05 404.828 2428.95 397.371C2432.94 389.806 2437.86 383.7 2443.7 379.053C2449.64 374.298 2456.07 370.893 2462.99 368.84C2469.9 366.786 2476.28 365.76 2482.12 365.76H2558.15C2568.95 365.76 2578.14 367.705 2585.71 371.596C2593.27 375.486 2599.38 380.404 2604.02 386.348C2608.67 392.184 2612.02 398.56 2614.07 405.477C2616.24 412.393 2617.32 418.824 2617.32 424.768V481.83ZM2575.17 425.092C2575.17 419.256 2573.71 414.933 2570.79 412.123C2567.87 409.313 2563.66 407.908 2558.15 407.908H2482.44C2476.82 407.908 2472.55 409.367 2469.63 412.285C2466.72 415.095 2465.26 419.256 2465.26 424.768V481.83C2465.26 487.342 2466.72 491.557 2469.63 494.475C2472.55 497.393 2476.82 498.852 2482.44 498.852H2558.15C2563.87 498.852 2568.14 497.393 2570.95 494.475C2573.76 491.557 2575.17 487.342 2575.17 481.83V425.092ZM2843.95 481.83C2843.95 489.071 2843.03 495.609 2841.19 501.445C2839.35 507.173 2836.92 512.253 2833.89 516.684C2830.87 521.007 2827.36 524.735 2823.36 527.869C2819.36 530.895 2815.14 533.381 2810.71 535.326C2806.39 537.271 2801.96 538.73 2797.42 539.703C2792.99 540.568 2788.77 541 2784.78 541H2708.75C2702.91 541 2696.53 539.973 2689.62 537.92C2682.7 535.867 2676.27 532.516 2670.33 527.869C2664.49 523.114 2659.57 517.008 2655.57 509.551C2651.68 501.986 2649.74 492.745 2649.74 481.83V424.768C2649.74 413.96 2651.68 404.828 2655.57 397.371C2659.57 389.806 2664.49 383.7 2670.33 379.053C2676.27 374.298 2682.7 370.893 2689.62 368.84C2696.53 366.786 2702.91 365.76 2708.75 365.76H2784.78C2795.58 365.76 2804.77 367.705 2812.33 371.596C2819.9 375.486 2826.01 380.404 2830.65 386.348C2835.3 392.184 2838.65 398.56 2840.7 405.477C2842.86 412.393 2843.95 418.824 2843.95 424.768V481.83ZM2801.8 425.092C2801.8 419.256 2800.34 414.933 2797.42 412.123C2794.5 409.313 2790.29 407.908 2784.78 407.908H2709.07C2703.45 407.908 2699.18 409.367 2696.26 412.285C2693.35 415.095 2691.89 419.256 2691.89 424.768V481.83C2691.89 487.342 2693.35 491.557 2696.26 494.475C2699.18 497.393 2703.45 498.852 2709.07 498.852H2784.78C2790.5 498.852 2794.77 497.393 2797.58 494.475C2800.39 491.557 2801.8 487.342 2801.8 481.83V425.092ZM3085.81 541H3025.02L2940.08 458.973C2935.32 454.65 2933.11 449.246 2933.43 442.762C2933.65 439.736 2934.4 436.926 2935.7 434.332C2937.1 431.63 2939 429.361 2941.37 427.523L3018.38 365.436H3085.81L2986.6 445.355L3085.81 541ZM2922.73 541H2880.58V291.676H2922.73V541Z" fill="black"/>
<defs>
<linearGradient id="paint0_linear_1_71" x1="634.763" y1="808.391" x2="634.763" y2="800.337" gradientUnits="userSpaceOnUse">
<stop stop-color="white" stop-opacity="0.5"/>
<stop offset="1" stop-opacity="0.5"/>
</linearGradient>
<linearGradient id="paint1_linear_1_71" x1="503.465" y1="702.627" x2="213.936" y2="702.627" gradientUnits="userSpaceOnUse">
<stop stop-color="white" stop-opacity="0.5"/>
<stop offset="1" stop-color="white" stop-opacity="0.5"/>
</linearGradient>
<linearGradient id="paint2_linear_1_71" x1="657.361" y1="785.707" x2="816.799" y2="785.707" gradientUnits="userSpaceOnUse">
<stop stop-color="#9B9B9B" stop-opacity="0.5"/>
<stop offset="1" stop-color="white" stop-opacity="0.5"/>
</linearGradient>
<radialGradient id="paint3_radial_1_71" cx="0" cy="0" r="1" gradientUnits="userSpaceOnUse" gradientTransform="translate(668.518 745.668) rotate(90) scale(116.92 315.919)">
<stop stop-color="white" stop-opacity="0.5"/>
<stop offset="0.0819473" stop-color="#FAFAFA" stop-opacity="0.5"/>
<stop offset="1" stop-color="#848786"/>
</radialGradient>
<radialGradient id="paint4_radial_1_71" cx="0" cy="0" r="1" gradientUnits="userSpaceOnUse" gradientTransform="translate(337.426 742.681) rotate(90) scale(116.92 315.919)">
<stop stop-color="white" stop-opacity="0.5"/>
<stop offset="0.0819473" stop-color="#FAFAFA" stop-opacity="0.5"/>
<stop offset="1" stop-color="white" stop-opacity="0.5"/>
</radialGradient>
<radialGradient id="paint5_radial_1_71" cx="0" cy="0" r="1" gradientUnits="userSpaceOnUse" gradientTransform="translate(504.224 857.996) rotate(90) scale(116.92 988.205)">
<stop stop-color="white" stop-opacity="0.5"/>
<stop offset="0.0819473" stop-color="#FAFAFA" stop-opacity="0.5"/>
<stop offset="1" stop-color="#7A7C7B"/>
</radialGradient>
<radialGradient id="paint6_radial_1_71" cx="0" cy="0" r="1" gradientUnits="userSpaceOnUse" gradientTransform="translate(508.02 755.161) rotate(90) scale(23.2112 380.947)">
<stop stop-color="#646464" stop-opacity="0.5"/>
<stop offset="1" stop-color="#BABAB7"/>
</radialGradient>
<radialGradient id="paint7_radial_1_71" cx="0" cy="0" r="1" gradientUnits="userSpaceOnUse" gradientTransform="translate(508.02 612.506) rotate(90) scale(116.92 758.233)">
<stop stop-color="white" stop-opacity="0.5"/>
<stop offset="1" stop-opacity="0.5"/>
</radialGradient>
<linearGradient id="paint8_linear_1_71" x1="-90.0709" y1="696.154" x2="1472.63" y2="696.154" gradientUnits="userSpaceOnUse">
<stop stop-color="#C4C4C4" stop-opacity="0.5"/>
<stop offset="1" stop-color="#444444" stop-opacity="0.5"/>
</linearGradient>
</defs>
</svg>
